<svg xmlns="http://www.w3.org/2000/svg" xmlns:xlink="http://www.w3.org/1999/xlink" width="1920" zoomAndPan="magnify" viewBox="0 0 1440 809.999993" height="1080" preserveAspectRatio="xMidYMid meet" version="1.0"><defs><filter x="0%" y="0%" width="100%" height="100%" id="784a30f8e2"><feColorMatrix values="0 0 0 0 1 0 0 0 0 1 0 0 0 0 1 0 0 0 1 0" color-interpolation-filters="sRGB"/></filter><mask id="35004cb4ce"><g filter="url(#784a30f8e2)"><rect x="-144" width="1728" fill="#000000" y="-80.999999" height="971.999992" fill-opacity="0.2"/></g></mask><clipPath id="2a5086c2ae"><path d="M 0 0 L 719.800781 0 L 719.800781 810 L 0 810 Z M 0 0 " clip-rule="nonzero"/></clipPath><clipPath id="e4e68b345d"><rect x="0" width="721" y="0" height="810"/></clipPath><mask id="e3249ec8a2"><g filter="url(#784a30f8e2)"><rect x="-144" width="1728" fill="#000000" y="-80.999999" height="971.999992" fill-opacity="0.2"/></g></mask><clipPath id="633b5db500"><path d="M 0 0 L 720 0 L 720 810 L 0 810 Z M 0 0 " clip-rule="nonzero"/></clipPath><clipPath id="12c5480ff4"><rect x="0" width="720" y="0" height="810"/></clipPath></defs><rect x="-144" width="1728" fill="#ffffff" y="-80.999999" height="971.999992" fill-opacity="1"/><rect x="-144" width="1728" fill="#501b1c" y="-80.999999" height="971.999992" fill-opacity="1"/><g mask="url(#35004cb4ce)"><g transform="matrix(1, 0, 0, 1, 0, 0.000000000000039746)"><g clip-path="url(#e4e68b345d)"><g clip-path="url(#2a5086c2ae)"><path fill="#9ebebf" d="M 703.6875 763.445312 L 703.6875 836.535156 L 701.527344 836.535156 L 701.527344 46.371094 L 703.6875 46.371094 Z M 669.15625 46.371094 L 667 46.371094 L 667 836.535156 L 669.15625 836.535156 Z M 634.628906 46.371094 L 632.46875 46.371094 L 632.46875 836.535156 L 634.628906 836.535156 Z M 600.097656 46.371094 L 597.9375 46.371094 L 597.9375 836.535156 L 600.097656 836.535156 Z M 565.566406 46.371094 L 563.410156 46.371094 L 563.410156 836.535156 L 565.566406 836.535156 Z M 531.035156 46.371094 L 528.878906 46.371094 L 528.878906 836.535156 L 531.035156 836.535156 Z M 496.507812 46.371094 L 494.347656 46.371094 L 494.347656 836.535156 L 496.507812 836.535156 Z M 461.976562 46.371094 L 459.820312 46.371094 L 459.820312 836.535156 L 461.976562 836.535156 Z M 427.445312 46.371094 L 425.289062 46.371094 L 425.289062 836.535156 L 427.445312 836.535156 Z M 392.917969 46.371094 L 390.757812 46.371094 L 390.757812 836.535156 L 392.917969 836.535156 Z M 358.386719 46.371094 L 356.230469 46.371094 L 356.230469 836.535156 L 358.386719 836.535156 Z M 323.855469 46.371094 L 321.699219 46.371094 L 321.699219 836.535156 L 323.855469 836.535156 Z M 289.328125 46.371094 L 287.167969 46.371094 L 287.167969 836.535156 L 289.328125 836.535156 Z M 254.796875 46.371094 L 252.640625 46.371094 L 252.640625 836.535156 L 254.796875 836.535156 Z M 220.265625 46.371094 L 218.109375 46.371094 L 218.109375 836.535156 L 220.265625 836.535156 Z M 185.738281 46.371094 L 183.578125 46.371094 L 183.578125 836.535156 L 185.738281 836.535156 Z M 151.207031 46.371094 L 149.046875 46.371094 L 149.046875 836.535156 L 151.207031 836.535156 Z M 116.675781 46.371094 L 114.519531 46.371094 L 114.519531 836.535156 L 116.675781 836.535156 Z M 82.148438 46.371094 L 79.988281 46.371094 L 79.988281 836.535156 L 82.148438 836.535156 Z M 47.617188 46.371094 L 45.457031 46.371094 L 45.457031 836.535156 L 47.617188 836.535156 Z M 13.085938 46.371094 L 10.929688 46.371094 L 10.929688 836.535156 L 13.085938 836.535156 Z M -21.441406 46.371094 L -23.601562 46.371094 L -23.601562 836.535156 L -21.441406 836.535156 Z M -55.972656 46.371094 L -58.132812 46.371094 L -58.132812 836.535156 L -55.972656 836.535156 Z M -90.503906 46.371094 L -92.660156 46.371094 L -92.660156 836.535156 L -90.503906 836.535156 Z M -125.03125 46.371094 L -127.191406 46.371094 L -127.191406 836.535156 L -125.03125 836.535156 Z M 703.6875 46.371094 L 703.6875 -26.714844 L 701.527344 -26.714844 L 701.527344 46.371094 Z M 669.15625 46.371094 L 669.15625 -26.714844 L 667 -26.714844 L 667 46.371094 Z M 634.628906 46.371094 L 634.628906 -26.714844 L 632.46875 -26.714844 L 632.46875 46.371094 Z M 600.097656 46.371094 L 600.097656 -26.714844 L 597.9375 -26.714844 L 597.9375 46.371094 Z M 565.566406 46.371094 L 565.566406 -26.714844 L 563.410156 -26.714844 L 563.410156 46.371094 Z M 531.035156 46.371094 L 531.035156 -26.714844 L 528.878906 -26.714844 L 528.878906 46.371094 Z M 496.507812 46.371094 L 496.507812 -26.714844 L 494.347656 -26.714844 L 494.347656 46.371094 Z M 461.976562 46.371094 L 461.976562 -26.714844 L 459.820312 -26.714844 L 459.820312 46.371094 Z M 427.445312 46.371094 L 427.445312 -26.714844 L 425.289062 -26.714844 L 425.289062 46.371094 Z M 392.917969 46.371094 L 392.917969 -26.714844 L 390.757812 -26.714844 L 390.757812 46.371094 Z M 358.386719 46.371094 L 358.386719 -26.714844 L 356.230469 -26.714844 L 356.230469 46.371094 Z M 323.855469 46.371094 L 323.855469 -26.714844 L 321.699219 -26.714844 L 321.699219 46.371094 Z M 289.328125 46.371094 L 289.328125 -26.714844 L 287.167969 -26.714844 L 287.167969 46.371094 Z M 254.796875 46.371094 L 254.796875 -26.714844 L 252.640625 -26.714844 L 252.640625 46.371094 Z M 220.265625 46.371094 L 220.265625 -26.714844 L 218.109375 -26.714844 L 218.109375 46.371094 Z M 185.738281 46.371094 L 185.738281 -26.714844 L 183.578125 -26.714844 L 183.578125 46.371094 Z M 151.207031 46.371094 L 151.207031 -26.714844 L 149.046875 -26.714844 L 149.046875 46.371094 Z M 116.675781 46.371094 L 116.675781 -26.714844 L 114.519531 -26.714844 L 114.519531 46.371094 Z M 82.148438 46.371094 L 82.148438 -26.714844 L 79.988281 -26.714844 L 79.988281 46.371094 Z M 47.617188 46.371094 L 47.617188 -26.714844 L 45.457031 -26.714844 L 45.457031 46.371094 Z M 13.085938 46.371094 L 13.085938 -26.714844 L 10.929688 -26.714844 L 10.929688 46.371094 Z M -21.441406 46.371094 L -21.441406 -26.714844 L -23.601562 -26.714844 L -23.601562 46.371094 Z M -55.972656 46.371094 L -55.972656 -26.714844 L -58.132812 -26.714844 L -58.132812 46.371094 Z M -90.503906 46.371094 L -90.503906 -26.714844 L -92.660156 -26.714844 L -92.660156 46.371094 Z M -125.03125 46.371094 L -125.03125 -26.714844 L -127.191406 -26.714844 L -127.191406 46.371094 Z M 646.710938 820.421875 L 646.710938 818.261719 L -143.449219 818.261719 L -143.449219 820.421875 Z M 646.710938 785.890625 L 646.710938 783.730469 L -143.449219 783.730469 L -143.449219 785.890625 Z M 646.710938 751.359375 L 646.710938 749.203125 L -143.449219 749.203125 L -143.449219 751.359375 Z M 646.710938 716.828125 L 646.710938 714.671875 L -143.449219 714.671875 L -143.449219 716.828125 Z M 646.710938 682.300781 L 646.710938 680.140625 L -143.449219 680.140625 L -143.449219 682.300781 Z M 646.710938 647.769531 L 646.710938 645.613281 L -143.449219 645.613281 L -143.449219 647.769531 Z M 646.710938 613.238281 L 646.710938 611.082031 L -143.449219 611.082031 L -143.449219 613.238281 Z M 646.710938 578.710938 L 646.710938 576.550781 L -143.449219 576.550781 L -143.449219 578.710938 Z M 646.710938 544.179688 L 646.710938 542.023438 L -143.449219 542.023438 L -143.449219 544.179688 Z M 646.710938 509.648438 L 646.710938 507.492188 L -143.449219 507.492188 L -143.449219 509.648438 Z M 646.710938 475.121094 L 646.710938 472.960938 L -143.449219 472.960938 L -143.449219 475.121094 Z M 646.710938 440.589844 L 646.710938 438.433594 L -143.449219 438.433594 L -143.449219 440.589844 Z M 646.710938 406.058594 L 646.710938 403.902344 L -143.449219 403.902344 L -143.449219 406.058594 Z M 646.710938 371.53125 L 646.710938 369.371094 L -143.449219 369.371094 L -143.449219 371.53125 Z M 646.710938 337 L 646.710938 334.84375 L -143.449219 334.84375 L -143.449219 337 Z M 646.710938 302.46875 L 646.710938 300.3125 L -143.449219 300.3125 L -143.449219 302.46875 Z M 646.710938 267.941406 L 646.710938 265.78125 L -143.449219 265.78125 L -143.449219 267.941406 Z M 646.710938 233.410156 L 646.710938 231.253906 L -143.449219 231.253906 L -143.449219 233.410156 Z M 646.710938 198.878906 L 646.710938 196.722656 L -143.449219 196.722656 L -143.449219 198.878906 Z M 646.710938 164.351562 L 646.710938 162.191406 L -143.449219 162.191406 L -143.449219 164.351562 Z M 646.710938 129.820312 L 646.710938 127.660156 L -143.449219 127.660156 L -143.449219 129.820312 Z M 646.710938 95.289062 L 646.710938 93.132812 L -143.449219 93.132812 L -143.449219 95.289062 Z M 646.710938 60.761719 L 646.710938 58.601562 L -143.449219 58.601562 L -143.449219 60.761719 Z M 646.710938 26.230469 L 646.710938 24.070312 L -143.449219 24.070312 L -143.449219 26.230469 Z M 646.710938 -8.300781 L 646.710938 -10.457031 L -143.449219 -10.457031 L -143.449219 -8.300781 Z M 646.710938 820.421875 L 719.800781 820.421875 L 719.800781 818.261719 L 646.710938 818.261719 Z M 646.710938 785.890625 L 719.800781 785.890625 L 719.800781 783.730469 L 646.710938 783.730469 Z M 646.710938 751.359375 L 719.800781 751.359375 L 719.800781 749.203125 L 646.710938 749.203125 Z M 646.710938 716.828125 L 719.800781 716.828125 L 719.800781 714.671875 L 646.710938 714.671875 Z M 646.710938 682.300781 L 719.800781 682.300781 L 719.800781 680.140625 L 646.710938 680.140625 Z M 646.710938 647.769531 L 719.800781 647.769531 L 719.800781 645.613281 L 646.710938 645.613281 Z M 646.710938 613.238281 L 719.800781 613.238281 L 719.800781 611.082031 L 646.710938 611.082031 Z M 646.710938 578.710938 L 719.800781 578.710938 L 719.800781 576.550781 L 646.710938 576.550781 Z M 646.710938 544.179688 L 719.800781 544.179688 L 719.800781 542.023438 L 646.710938 542.023438 Z M 646.710938 509.648438 L 719.800781 509.648438 L 719.800781 507.492188 L 646.710938 507.492188 Z M 646.710938 475.121094 L 719.800781 475.121094 L 719.800781 472.960938 L 646.710938 472.960938 Z M 646.710938 440.589844 L 719.800781 440.589844 L 719.800781 438.433594 L 646.710938 438.433594 Z M 646.710938 406.058594 L 719.800781 406.058594 L 719.800781 403.902344 L 646.710938 403.902344 Z M 646.710938 371.53125 L 719.800781 371.53125 L 719.800781 369.371094 L 646.710938 369.371094 Z M 646.710938 337 L 719.800781 337 L 719.800781 334.84375 L 646.710938 334.84375 Z M 646.710938 302.46875 L 719.800781 302.46875 L 719.800781 300.3125 L 646.710938 300.3125 Z M 646.710938 267.941406 L 719.800781 267.941406 L 719.800781 265.78125 L 646.710938 265.78125 Z M 646.710938 233.410156 L 719.800781 233.410156 L 719.800781 231.253906 L 646.710938 231.253906 Z M 646.710938 198.878906 L 719.800781 198.878906 L 719.800781 196.722656 L 646.710938 196.722656 Z M 646.710938 164.351562 L 719.800781 164.351562 L 719.800781 162.191406 L 646.710938 162.191406 Z M 646.710938 129.820312 L 719.800781 129.820312 L 719.800781 127.660156 L 646.710938 127.660156 Z M 646.710938 95.289062 L 719.800781 95.289062 L 719.800781 93.132812 L 646.710938 93.132812 Z M 646.710938 60.761719 L 719.800781 60.761719 L 719.800781 58.601562 L 646.710938 58.601562 Z M 646.710938 26.230469 L 719.800781 26.230469 L 719.800781 24.070312 L 646.710938 24.070312 Z M 646.710938 -8.300781 L 719.800781 -8.300781 L 719.800781 -10.457031 L 646.710938 -10.457031 Z M 646.710938 -8.300781 " fill-opacity="1" fill-rule="nonzero"/></g></g></g></g><g mask="url(#e3249ec8a2)"><g transform="matrix(1, 0, 0, 1, 720, 0.000000000000039746)"><g clip-path="url(#12c5480ff4)"><g clip-path="url(#633b5db500)"><path fill="#9ebebf" d="M 847.136719 763.445312 L 847.136719 836.535156 L 844.976562 836.535156 L 844.976562 46.371094 L 847.136719 46.371094 Z M 812.605469 46.371094 L 810.449219 46.371094 L 810.449219 836.535156 L 812.605469 836.535156 Z M 778.074219 46.371094 L 775.917969 46.371094 L 775.917969 836.535156 L 778.074219 836.535156 Z M 743.546875 46.371094 L 741.386719 46.371094 L 741.386719 836.535156 L 743.546875 836.535156 Z M 709.015625 46.371094 L 706.859375 46.371094 L 706.859375 836.535156 L 709.015625 836.535156 Z M 674.484375 46.371094 L 672.328125 46.371094 L 672.328125 836.535156 L 674.484375 836.535156 Z M 639.957031 46.371094 L 637.796875 46.371094 L 637.796875 836.535156 L 639.957031 836.535156 Z M 605.425781 46.371094 L 603.269531 46.371094 L 603.269531 836.535156 L 605.425781 836.535156 Z M 570.894531 46.371094 L 568.738281 46.371094 L 568.738281 836.535156 L 570.894531 836.535156 Z M 536.367188 46.371094 L 534.207031 46.371094 L 534.207031 836.535156 L 536.367188 836.535156 Z M 501.835938 46.371094 L 499.679688 46.371094 L 499.679688 836.535156 L 501.835938 836.535156 Z M 467.304688 46.371094 L 465.148438 46.371094 L 465.148438 836.535156 L 467.304688 836.535156 Z M 432.777344 46.371094 L 430.617188 46.371094 L 430.617188 836.535156 L 432.777344 836.535156 Z M 398.246094 46.371094 L 396.085938 46.371094 L 396.085938 836.535156 L 398.246094 836.535156 Z M 363.714844 46.371094 L 361.558594 46.371094 L 361.558594 836.535156 L 363.714844 836.535156 Z M 329.1875 46.371094 L 327.027344 46.371094 L 327.027344 836.535156 L 329.1875 836.535156 Z M 294.65625 46.371094 L 292.496094 46.371094 L 292.496094 836.535156 L 294.65625 836.535156 Z M 260.125 46.371094 L 257.96875 46.371094 L 257.96875 836.535156 L 260.125 836.535156 Z M 225.597656 46.371094 L 223.4375 46.371094 L 223.4375 836.535156 L 225.597656 836.535156 Z M 191.066406 46.371094 L 188.90625 46.371094 L 188.90625 836.535156 L 191.066406 836.535156 Z M 156.535156 46.371094 L 154.378906 46.371094 L 154.378906 836.535156 L 156.535156 836.535156 Z M 122.007812 46.371094 L 119.847656 46.371094 L 119.847656 836.535156 L 122.007812 836.535156 Z M 87.476562 46.371094 L 85.316406 46.371094 L 85.316406 836.535156 L 87.476562 836.535156 Z M 52.945312 46.371094 L 50.789062 46.371094 L 50.789062 836.535156 L 52.945312 836.535156 Z M 18.414062 46.371094 L 16.257812 46.371094 L 16.257812 836.535156 L 18.414062 836.535156 Z M 847.136719 46.371094 L 847.136719 -26.714844 L 844.976562 -26.714844 L 844.976562 46.371094 Z M 812.605469 46.371094 L 812.605469 -26.714844 L 810.449219 -26.714844 L 810.449219 46.371094 Z M 778.074219 46.371094 L 778.074219 -26.714844 L 775.917969 -26.714844 L 775.917969 46.371094 Z M 743.546875 46.371094 L 743.546875 -26.714844 L 741.386719 -26.714844 L 741.386719 46.371094 Z M 709.015625 46.371094 L 709.015625 -26.714844 L 706.859375 -26.714844 L 706.859375 46.371094 Z M 674.484375 46.371094 L 674.484375 -26.714844 L 672.328125 -26.714844 L 672.328125 46.371094 Z M 639.957031 46.371094 L 639.957031 -26.714844 L 637.796875 -26.714844 L 637.796875 46.371094 Z M 605.425781 46.371094 L 605.425781 -26.714844 L 603.269531 -26.714844 L 603.269531 46.371094 Z M 570.894531 46.371094 L 570.894531 -26.714844 L 568.738281 -26.714844 L 568.738281 46.371094 Z M 536.367188 46.371094 L 536.367188 -26.714844 L 534.207031 -26.714844 L 534.207031 46.371094 Z M 501.835938 46.371094 L 501.835938 -26.714844 L 499.679688 -26.714844 L 499.679688 46.371094 Z M 467.304688 46.371094 L 467.304688 -26.714844 L 465.148438 -26.714844 L 465.148438 46.371094 Z M 432.777344 46.371094 L 432.777344 -26.714844 L 430.617188 -26.714844 L 430.617188 46.371094 Z M 398.246094 46.371094 L 398.246094 -26.714844 L 396.085938 -26.714844 L 396.085938 46.371094 Z M 363.714844 46.371094 L 363.714844 -26.714844 L 361.558594 -26.714844 L 361.558594 46.371094 Z M 329.1875 46.371094 L 329.1875 -26.714844 L 327.027344 -26.714844 L 327.027344 46.371094 Z M 294.65625 46.371094 L 294.65625 -26.714844 L 292.496094 -26.714844 L 292.496094 46.371094 Z M 260.125 46.371094 L 260.125 -26.714844 L 257.96875 -26.714844 L 257.96875 46.371094 Z M 225.597656 46.371094 L 225.597656 -26.714844 L 223.4375 -26.714844 L 223.4375 46.371094 Z M 191.066406 46.371094 L 191.066406 -26.714844 L 188.90625 -26.714844 L 188.90625 46.371094 Z M 156.535156 46.371094 L 156.535156 -26.714844 L 154.378906 -26.714844 L 154.378906 46.371094 Z M 122.007812 46.371094 L 122.007812 -26.714844 L 119.847656 -26.714844 L 119.847656 46.371094 Z M 87.476562 46.371094 L 87.476562 -26.714844 L 85.316406 -26.714844 L 85.316406 46.371094 Z M 52.945312 46.371094 L 52.945312 -26.714844 L 50.789062 -26.714844 L 50.789062 46.371094 Z M 18.414062 46.371094 L 18.414062 -26.714844 L 16.257812 -26.714844 L 16.257812 46.371094 Z M 790.160156 820.421875 L 790.160156 818.261719 L 0 818.261719 L 0 820.421875 Z M 790.160156 785.890625 L 790.160156 783.730469 L 0 783.730469 L 0 785.890625 Z M 790.160156 751.359375 L 790.160156 749.203125 L 0 749.203125 L 0 751.359375 Z M 790.160156 716.828125 L 790.160156 714.671875 L 0 714.671875 L 0 716.828125 Z M 790.160156 682.300781 L 790.160156 680.140625 L 0 680.140625 L 0 682.300781 Z M 790.160156 647.769531 L 790.160156 645.613281 L 0 645.613281 L 0 647.769531 Z M 790.160156 613.238281 L 790.160156 611.082031 L 0 611.082031 L 0 613.238281 Z M 790.160156 578.710938 L 790.160156 576.550781 L 0 576.550781 L 0 578.710938 Z M 790.160156 544.179688 L 790.160156 542.023438 L 0 542.023438 L 0 544.179688 Z M 790.160156 509.648438 L 790.160156 507.492188 L 0 507.492188 L 0 509.648438 Z M 790.160156 475.121094 L 790.160156 472.960938 L 0 472.960938 L 0 475.121094 Z M 790.160156 440.589844 L 790.160156 438.433594 L 0 438.433594 L 0 440.589844 Z M 790.160156 406.058594 L 790.160156 403.902344 L 0 403.902344 L 0 406.058594 Z M 790.160156 371.53125 L 790.160156 369.371094 L 0 369.371094 L 0 371.53125 Z M 790.160156 337 L 790.160156 334.84375 L 0 334.84375 L 0 337 Z M 790.160156 302.46875 L 790.160156 300.3125 L 0 300.3125 L 0 302.46875 Z M 790.160156 267.941406 L 790.160156 265.78125 L 0 265.78125 L 0 267.941406 Z M 790.160156 233.410156 L 790.160156 231.253906 L 0 231.253906 L 0 233.410156 Z M 790.160156 198.878906 L 790.160156 196.722656 L 0 196.722656 L 0 198.878906 Z M 790.160156 164.351562 L 790.160156 162.191406 L 0 162.191406 L 0 164.351562 Z M 790.160156 129.820312 L 790.160156 127.660156 L 0 127.660156 L 0 129.820312 Z M 790.160156 95.289062 L 790.160156 93.132812 L 0 93.132812 L 0 95.289062 Z M 790.160156 60.761719 L 790.160156 58.601562 L 0 58.601562 L 0 60.761719 Z M 790.160156 26.230469 L 790.160156 24.070312 L 0 24.070312 L 0 26.230469 Z M 790.160156 -8.300781 L 790.160156 -10.457031 L 0 -10.457031 L 0 -8.300781 Z M 790.160156 820.421875 L 863.25 820.421875 L 863.25 818.261719 L 790.160156 818.261719 Z M 790.160156 785.890625 L 863.25 785.890625 L 863.25 783.730469 L 790.160156 783.730469 Z M 790.160156 751.359375 L 863.25 751.359375 L 863.25 749.203125 L 790.160156 749.203125 Z M 790.160156 716.828125 L 863.25 716.828125 L 863.25 714.671875 L 790.160156 714.671875 Z M 790.160156 682.300781 L 863.25 682.300781 L 863.25 680.140625 L 790.160156 680.140625 Z M 790.160156 647.769531 L 863.25 647.769531 L 863.25 645.613281 L 790.160156 645.613281 Z M 790.160156 613.238281 L 863.25 613.238281 L 863.25 611.082031 L 790.160156 611.082031 Z M 790.160156 578.710938 L 863.25 578.710938 L 863.25 576.550781 L 790.160156 576.550781 Z M 790.160156 544.179688 L 863.25 544.179688 L 863.25 542.023438 L 790.160156 542.023438 Z M 790.160156 509.648438 L 863.25 509.648438 L 863.25 507.492188 L 790.160156 507.492188 Z M 790.160156 475.121094 L 863.25 475.121094 L 863.25 472.960938 L 790.160156 472.960938 Z M 790.160156 440.589844 L 863.25 440.589844 L 863.25 438.433594 L 790.160156 438.433594 Z M 790.160156 406.058594 L 863.25 406.058594 L 863.25 403.902344 L 790.160156 403.902344 Z M 790.160156 371.53125 L 863.25 371.53125 L 863.25 369.371094 L 790.160156 369.371094 Z M 790.160156 337 L 863.25 337 L 863.25 334.84375 L 790.160156 334.84375 Z M 790.160156 302.46875 L 863.25 302.46875 L 863.25 300.3125 L 790.160156 300.3125 Z M 790.160156 267.941406 L 863.25 267.941406 L 863.25 265.78125 L 790.160156 265.78125 Z M 790.160156 233.410156 L 863.25 233.410156 L 863.25 231.253906 L 790.160156 231.253906 Z M 790.160156 198.878906 L 863.25 198.878906 L 863.25 196.722656 L 790.160156 196.722656 Z M 790.160156 164.351562 L 863.25 164.351562 L 863.25 162.191406 L 790.160156 162.191406 Z M 790.160156 129.820312 L 863.25 129.820312 L 863.25 127.660156 L 790.160156 127.660156 Z M 790.160156 95.289062 L 863.25 95.289062 L 863.25 93.132812 L 790.160156 93.132812 Z M 790.160156 60.761719 L 863.25 60.761719 L 863.25 58.601562 L 790.160156 58.601562 Z M 790.160156 26.230469 L 863.25 26.230469 L 863.25 24.070312 L 790.160156 24.070312 Z M 790.160156 -8.300781 L 863.25 -8.300781 L 863.25 -10.457031 L 790.160156 -10.457031 Z M 790.160156 -8.300781 " fill-opacity="1" fill-rule="nonzero"/></g></g></g></g></svg>